<svg xmlns="http://www.w3.org/2000/svg" width="400" height="400"><path d="M98.438 1.792c-7.184 4.007-10.385 7.944-11.366 13.981-.517 3.182-1.107 3.786-5.079 5.198-11.092 3.945-22.613 11.29-32.901 20.976l-6.408 6.033-5.208-.612C25.257 45.932 16.461 53.36 9.141 71.297c-2.445 5.992-.995 16.698 3.11 22.963 1.849 2.822 2.358 8.246.859 9.172-.489.302-1.174 2.241-1.523 4.309-.348 2.067-1.164 6.909-1.811 10.759-1.321 7.852-1.529 30.605-.342 37.525.709 4.141.572 4.634-1.621 5.808-1.319.705-3.616 3.3-5.105 5.766C.37 171.469 0 173.163 0 179.992c0 7.197.338 8.557 3.75 15.091C9.725 206.523 18.431 213 27.834 213c2.584 0 3.752.879 6.987 5.257 2.135 2.891 7.57 9.079 12.076 13.75l8.192 8.493-1.096 3.787c-1.62 5.601.692 11.447 7.644 19.324 2.411 2.733 11.618 7.556 17.363 9.095 5.529 1.482 13.664 1.647 14.5.294.34-.55 1.429-1 2.419-1 .991 0 3.463-1.128 5.494-2.506 3.46-2.347 4.052-2.438 9.39-1.439 3.133.587 9.668 1.491 14.522 2.011 9.641 1.031 12.675 2.14 12.675 4.631 0 5.947 11.423 16.163 22 19.676 6.566 2.181 17.686 2.979 23.376 1.677 5.53-1.265 13.195-4.547 14.122-6.047 1.237-2.001 4.324-.906 11.095 3.936 9.005 6.44 13.407 10.475 13.407 12.289 0 .806-.691 2.849-1.534 4.541-2.354 4.718-4.47 13.807-4.43 19.03.055 7.301 3.207 18.91 7.536 27.759 3.523 7.2 14.367 16.442 19.292 16.442 3.958 0 4.384 2.271 2.174 11.576-3.324 13.996-12.529 12.477 73.781 12.18l74.681-.256.331-2.9c.182-1.595-.644-6.925-1.836-11.844-2.166-8.938-2.166-8.945-.174-11.1 1.097-1.186 3.386-5.048 5.087-8.583 2.797-5.814 3.092-7.347 3.092-16.05 0-5.293-.38-10.05-.844-10.573-.464-.522-1.9-3.65-3.189-6.95-3.566-9.121-5.729-12.529-11.429-18.006-7.958-7.646-19.507-12.597-24.743-10.606-3.286 1.249-4.892.148-10.45-7.168-2.599-3.421-7.34-9.049-10.535-12.507-6.073-6.571-7.144-9.851-4.705-14.408 1.112-2.078-.185-11.93-2.066-15.692-.443-.887-1.38-2.843-2.082-4.346-.702-1.503-2.105-3.622-3.117-4.708-1.012-1.087-1.84-2.264-1.84-2.617 0-1.128-6.363-7.018-10.5-9.719-6.797-4.439-17.344-7.109-23.883-6.048-1.861.302-5.685 2.291-8.499 4.421l-5.115 3.871-3.752-2.147c-4.621-2.645-7.584-4.108-12.751-6.296-8.14-3.447-8.779-4.052-10.209-9.663-1.577-6.193-5.006-10.866-11.727-15.982-6.685-5.089-14.93-7.379-26.564-7.379-8.389 0-10.169.329-15.224 2.811-3.149 1.546-7.199 4.521-9 6.611l-3.276 3.801-14.427-.641c-10.327-.459-14.547-1.003-14.851-1.915-.726-2.18-5.518-6.086-10.12-8.249-10.488-4.93-22.03-4.609-33.095.921l-5.714 2.855-3.713-1.905C97.932 192.404 86 180.756 86 178.603c0-.882-.395-1.603-.879-1.603-.483 0-1.42-1.463-2.083-3.25-.663-1.787-1.662-4.103-2.221-5.146-.854-1.593-.279-2.526 3.594-5.837 2.873-2.456 5.595-6.074 7.225-9.604 2.258-4.887 2.609-6.964 2.566-15.163-.042-8.086-.427-10.269-2.588-14.667-1.396-2.841-3.737-6.365-5.202-7.83-2.455-2.455-2.556-2.869-1.288-5.276 2.43-4.615 11.505-13.629 17.123-17.009 9.581-5.764 15.19-7.374 26.322-7.554 8.949-.146 10.608.113 14.906 2.323 8.14 4.186 13.321 10.54 16.38 20.084 2.961 9.238-.897 23.881-8.984 34.092-6 7.576-20.677 14.81-30.086 14.829-4.243.009-6.551 2.711-4.918 5.758 2.471 4.609 13.249 11.566 21.633 13.962 10.909 3.117 24.879 3.2 30.736.183.955-.492 2.342-.895 3.081-.895 2.154 0 9.947-4.249 14.711-8.022 4.063-3.217 4.922-3.48 11.432-3.503 7.468-.027 12.189-2.114 17.204-7.605 5.763-6.311 11.262-21.426 10.004-27.5-.327-1.579-.887-4.332-1.245-6.12-.357-1.787-1.049-3.25-1.536-3.25-.488 0-.887-.644-.887-1.432 0-.787-1.313-2.367-2.919-3.51-2.901-2.066-2.921-2.153-3.38-14.318-.436-11.543-.814-14.009-3.756-24.502-1.11-3.96-1.008-4.544 1.43-8.229 2.039-3.081 2.625-5.201 2.625-9.501 0-3.044-.4-6.317-.889-7.272a427.24 427.24 0 01-2.75-5.552C208.621 40.065 198.576 30 195.709 30c-.72 0-1.736-.372-2.259-.826-.522-.454-2.878-1.432-5.235-2.172-3.753-1.178-4.967-1.13-9.777.386-5.768 1.818-5.606 1.844-12.938-2.095-5.662-3.042-14.472-6.531-19.5-7.723-1.771-.42-3.229-2.108-5-5.79-1.782-3.703-3.896-6.142-7.359-8.488L128.782 0l-13.641.042c-10.946.034-14.246.379-16.703 1.75M108.5 6.88c-5.303 1.372-10.182 4.15-11.265 6.415-2.027 4.241-2.058 5.467-.214 8.499 1.975 3.248 5.674 5.239 12.979 6.987 7.112 1.701 18.071-1.513 21.943-6.436 3.984-5.065 2.059-9.839-5.507-13.657-3.693-1.864-13.786-2.882-17.936-1.808m69.155 29.949c-3.548 3.921-1.178 15.013 4.515 21.123 3.231 3.468 8.275 6.686 12.611 8.046 3.737 1.172 4.715 1.136 7.697-.286C214.642 59.911 198.977 35 183.166 35c-2.466 0-4.453.659-5.511 1.829M27.683 57.75c-7.946 5.948-11.629 14.887-10.858 26.354.222 3.308 4.421 7.896 7.226 7.896 12.49 0 23.205-23.42 15.398-33.656-3.204-4.2-6.712-4.377-11.766-.594m41.513 64.548c-1.758 1.813-3.196 4.037-3.196 4.941 0 .903-.45 1.921-1 2.261-.55.34-1 4.178-1 8.529 0 6.172.462 8.741 2.101 11.691 3.375 6.071 4.867 7.28 8.981 7.28 3.112 0 4.29-.628 6.726-3.584 7.104-8.617 6.2-25.149-1.757-32.165-3.627-3.198-7.062-2.867-10.855 1.047m136.304-1.58c-8.049 1.955-16.811 17.478-15.079 26.713.893 4.762 5.073 9.569 8.32 9.569 7.555 0 17.259-13.676 17.259-24.323 0-9.541-3.596-13.636-10.5-11.959M10.924 170.582c-2.135 2.275-2.412 3.456-2.323 9.908.084 6.106.569 8.131 2.914 12.167C15.965 200.318 20.389 204 25.143 204c4.054 0 5.356-.817 7.607-4.775 1.455-2.558 1.668-11.461.334-13.989-.504-.955-1.668-3.462-2.588-5.572-.919-2.111-3.487-5.598-5.705-7.75-5.065-4.916-10.052-5.395-13.867-1.332m107.05 28.971c-6.73 3.573-9.296 10.224-5.544 14.369 3.308 3.656 10.111 6.078 17.07 6.078 9.841 0 17.487-4.063 18.991-10.092.817-3.273-3.168-8.328-8.233-10.445-4.414-1.844-18.75-1.786-22.284.09m85.515-.227c-5.286 2.061-9.33 4.959-9.904 7.098-2.486 9.258 3.369 16.65 16.982 21.441 10.822 3.809 20.922 2.361 27.622-3.96 6.7-6.321 4.853-13.461-5.141-19.874-8.534-5.477-22.059-7.629-29.559-4.705m86.274 33.239c-3.208 1.741-5.763 6.203-5.763 10.064 0 9.04 9.878 22.827 19.514 27.238a160.24 160.24 0 014.722 2.25C310.618 273.328 320 273.235 320 272c0-.55.623-1 1.385-1 2.152 0 4.615-4.55 4.615-8.527 0-7.163-2.93-13.301-9.534-19.97-3.432-3.466-7.978-7.06-10.103-7.987-2.125-.926-4.644-2.096-5.599-2.6-2.569-1.355-7.885-1.041-11.001.649M70 240.182c-5.046 1.414-8 4.529-8 8.433 0 2.505 1 4.282 4.287 7.616C72.416 262.448 78.401 265 86.853 265c6.094 0 7.173-.299 9.511-2.636 1.45-1.45 2.636-3.61 2.636-4.8 0-5.957-10.584-15.454-19-17.05a273.872 273.872 0 01-5-.988c-.825-.179-3.075.117-5 .656m89.068 17.5c-3.826.526-11.49 5.369-12.448 7.865-4.082 10.638 11.266 23.451 28.092 23.452 7.583.001 16.46-3.086 18.698-6.502.875-1.335 1.59-4.411 1.59-6.836 0-3.601-.596-5.042-3.25-7.858-3.974-4.216-8.123-6.998-12.75-8.549-4.121-1.382-15.051-2.244-19.932-1.572m73.665 50.568c-2.06 1.788-3.743 3.813-3.739 4.5.003.688-.444 1.25-.994 1.25s-1 1.098-1 2.441c0 1.343-.45 2.719-1 3.059-.554.342-1 4.883-1 10.178 0 9.96 2.559 20.325 5.948 24.097.854.95 2.822 3.427 4.375 5.505s4.844 4.728 7.313 5.889c4.009 1.884 4.903 1.973 8.366.83 4.746-1.566 9.413-6.312 10.815-10.999 3.525-11.779 3.531-11.834 2.284-19.25-.671-3.988-1.683-8.375-2.25-9.75-3.628-8.807-6.774-13.627-11.191-17.145-4.058-3.232-5.594-3.855-9.511-3.855-3.835 0-5.341.582-8.416 3.25m121.749 5.107c-4.507 4.704-5.482 7.654-5.482 16.586 0 10.869 6.14 25.453 13.294 31.576 4.893 4.189 11.806 7.504 15.445 7.408 3.538-.094 8.03-2.737 10.681-6.285 1.663-2.227 2.151-4.593 2.433-11.81.411-10.504-.793-15.855-5.496-24.414-5.644-10.274-14.771-17.408-22.278-17.414-3.916-.004-4.9.495-8.597 4.353" fill="undefined" fill-rule="evenodd"/></svg>