<svg xmlns="http://www.w3.org/2000/svg" width="512" height="512"><path d="M340.655 35.133c-3.278 1.905-5.609 8.755-5.633 16.55-.02 6.398-.25 7.255-2.113 7.846-5.08 1.612-6.42 13.147-2.441 21.006 1.473 2.91 2.244 5.764 1.914 7.081-.305 1.213.33 4.205 1.41 6.647 1.521 3.437 2.967 4.926 6.402 6.589 2.441 1.181 4.97 2.148 5.622 2.148 1.477 0 1.486.544.046 2.85-1.507 2.412-.367 9.791 2.154 13.936 1.174 1.931 3.576 3.867 6 4.837 3.432 1.373 3.936 1.939 3.337 3.747-1.147 3.464-.57 9.651 1.144 12.266.878 1.339 3.6 3.409 6.049 4.599 4.694 2.28 5.371 3.199 3.024 4.1-.786.302-1.733 2.57-2.104 5.041-.547 3.647-.188 5.552 1.908 10.129l2.581 5.637-2.215 2.995c-1.858 2.514-2.199 4.229-2.124 10.679.049 4.226.83 10.366 1.736 13.644 2.066 7.471 2.112 17.613.112 24.349-.849 2.858-3.679 7.971-6.327 11.431-5.684 7.426-9.352 9.187-29.978 14.393-15.603 3.938-22.821 4.313-26.298 1.367-2.121-1.797-2.192-2.102-.703-2.998 8.497-5.116 17.147-14.563 18.351-20.043 1.481-6.741-5.081-20.01-9.848-19.917-1.189.024-5.311 1.173-9.161 2.555-10.21 3.664-10.5 3.735-10.5 2.584 0-.579 1.795-2.062 3.989-3.295s4.243-3.174 4.552-4.314c1.497-5.507 6.845-18.572 7.602-18.572 1.338 0 1.075 1.197-2.285 10.423-1.729 4.744-2.892 8.876-2.586 9.182 1.662 1.662 4.705-2.269 7.208-9.313 6.425-18.079 7.737-23.615 8.25-34.834.559-12.209-1.255-21.35-6.391-32.207-3.421-7.231-13.617-17.91-21.135-22.138-4.605-2.589-6.442-4.315-7.802-7.33-2.298-5.096-9.589-11.487-14.663-12.853-5.151-1.387-7.596-.37-18.09 7.532-4.482 3.374-11.699 8.138-16.039 10.587-9.136 5.154-21.53 16.251-25.261 22.618-3.709 6.329-6.349 15.608-6.349 22.314 0 12.156 9.574 47.816 14.094 52.491 2.318 2.398 2.406 1.07.334-5.032-.864-2.546-1.32-4.881-1.013-5.188.673-.673 3.421 5.679 4.25 9.822.326 1.632 1.033 3.24 1.571 3.572.61.377.719-.573.291-2.521-.411-1.874-.286-3.125.314-3.125.55 0 1.297 1.463 1.659 3.25.362 1.787 1.861 4.26 3.329 5.495 3.43 2.883 1.154 3.02-4.994.3-2.431-1.075-6.235-2.245-8.454-2.6-3.669-.587-4.277-.358-6.699 2.521-3.901 4.637-6.212 13.321-4.799 18.038 1.311 4.376 7.287 11.456 13.028 15.434 2.249 1.559 4.089 3.113 4.089 3.455 0 .341-1.912 1.21-4.25 1.93-2.338.721-8.525 3.246-13.75 5.613-5.225 2.367-11.959 4.88-14.965 5.585-3.006.705-7.461 2.164-9.9 3.244-3.738 1.653-5.02 1.786-8.151.848-4.685-1.403-10.525-1.429-13.089-.057-1.593.853-2.558.564-5.011-1.5-3.686-3.101-6.786-3.967-11.801-3.294-3.774.506-3.805.482-5.19-4.126-1.183-3.938-2.065-4.975-5.855-6.886-2.454-1.237-5.684-2.25-7.178-2.25-2.685 0-2.709-.06-2.163-5.356.728-7.048-1.034-12.439-4.334-13.268-1.806-.453-2.297-1.066-1.804-2.249 2.256-5.406 2.558-8.912 1.073-12.466-1.453-3.477-1.433-3.661.396-3.661 4.286 0 6.351-8.908 3.535-15.25-.671-1.511-.208-1.75 3.38-1.75 2.286 0 5.423-.655 6.972-1.456 3.32-1.717 6.47-7.751 5.82-11.149-.521-2.724.434-3.101 2.265-.895.719.867 2.901 1.5 5.168 1.5 4.695 0 8.832-3.518 8.832-7.511 0-2.49.096-2.535 2.223-1.046 2.855 2.001 9.623 2.007 11.828.011 1.55-1.402 2.1-1.343 5.889.632 3.298 1.719 5.211 2.056 9.066 1.6 5.12-.607 9.709-2.544 12.399-5.234 2.334-2.334 1.981-3.248-1.655-4.287-6.615-1.891-13.472-5.076-21.728-10.091-4.663-2.833-9.456-5.396-10.652-5.696-2.49-.625-38.046 11.041-48.885 16.04-10.24 4.722-12.842 8.318-21.765 30.082-6.899 16.826-9.72 26.697-9.72 34.01 0 6.284.134 6.603 6.996 16.698 8.775 12.908 25.989 33.678 34.552 41.688 11.71 10.954 18.727 13.142 42.646 13.296 16.203.104 29.154-1.576 32.305-4.191.704-.584 1.785-3.073 2.404-5.531 1.342-5.329 3.097-5.879 3.097-.97 0 4.778 1.828 4.428 2.616-.5.352-2.2.98-4 1.395-4 3.048 0 .27 14.278-4.228 21.739-3.811 6.321-15.847 18.159-23.783 23.391-3.025 1.995-11.273 6.719-18.329 10.498-15.4 8.249-18.871 11.418-21.001 19.17-1.957 7.124-5.038 23.342-7.137 37.564-1.581 10.719-1.574 10.922.549 15.307 4.47 9.234 24.251 27.595 40.869 37.936 7.06 4.393 7.741 4.609 13 4.119 12.855-1.2 40.857-12.664 52.549-21.514 6.961-5.268 9.316-11.451 10.631-27.905.549-6.87 1.923-15.937 3.052-20.148 3.027-11.285 3.204-12.795 1.572-13.421-3.996-1.533-10.134 4.446-12.646 12.318-.857 2.684-1.975 3.858-4.572 4.797-4.918 1.778-8.021 6.004-9.489 12.924l-1.274 6.004-3.866-.518c-4.921-.66-7.958 1.262-11.474 7.261-1.8 3.072-3.026 4.246-3.796 3.638-.626-.495-2.761-1.422-4.744-2.06-4.159-1.338-7.925-.31-11.781 3.217-1.592 1.456-2.53 1.783-2.817.983-.852-2.381-4.616-6.483-6.634-7.229-1.766-.654-2.022-1.491-1.791-5.851.289-5.439-.727-8.227-4.458-12.237l-2.342-2.518 4.454-2.817c3.462-2.191 4.83-3.88 6.148-7.589l1.694-4.772 4.267.481c5.13.578 11.538-2.727 16.162-8.337 2.659-3.226 3.284-3.507 6.471-2.909 7.574 1.421 15.454-4.621 19.222-14.737.966-2.594 2.9-5.465 4.297-6.381 5.723-3.749 11.235-9.768 12.188-13.307.542-2.013 1.469-7.245 2.06-11.628 1.374-10.185 6.274-29.192 8.802-34.146 2.466-4.833 5.642-7.737 7.627-6.976 2.194.842 1.902 2.653-.428 2.653-1.08 0-2.423.856-2.982 1.902-.866 1.618-.722 1.824.964 1.383 2.575-.673 2.57 1.33-.007 2.709-1.956 1.047-5.01 5.897-5.01 7.956 0 .578.884 1.05 1.965 1.05 3.002 0 4.028 3.03 5.078 14.993 1.233 14.05 3.422 20.829 7.588 23.5 2.229 1.429 3.599 3.481 4.76 7.128 1.951 6.129 8.402 13.813 12.989 15.472 3.268 1.182 3.297 1.248 3.209 7.469-.115 8.104 2.075 11.334 10.22 15.08.169.078-.393 1.82-1.25 3.872-2.062 4.934-1.909 11.171.379 15.47l1.855 3.483-3.522 3.045c-2.945 2.545-3.598 3.859-3.987 8.016-.405 4.321-.082 5.499 2.47 9l2.936 4.027-2.449 1.848c-2.577 1.944-7.215 10.844-7.231 13.878-.01 1.83-.471 2.103-5.345 3.176-3.756.826-7.421 4.921-8.718 9.741-.862 3.201-1.397 3.794-2.972 3.294-2.157-.685-9.01 2.263-13.31 5.725-2.428 1.955-3.879 2.258-10.093 2.112-3.992-.094-8.959-.882-11.037-1.75-7.545-3.152-13.444-1.338-12.169 3.741.852 3.396 8.14 11.306 13.089 14.206 5.587 3.275 16.776 7.104 23.045 7.888 2.75.343 9.566.21 15.148-.296l10.147-.922 17.353-11.396c19.715-12.947 27.749-20.15 31.418-28.164 8.549-18.673 13.219-60.595 8.539-76.639-1.043-3.573-7.418-16.847-14.167-29.497-18.855-35.338-20.329-41.242-11.624-46.55l3.186-1.943-5.628-.003c-6.37-.004-8.196 1.34-7.74 5.696.393 3.743-1.342 4.489-2.537 1.09-1.362-3.874.633-7.569 5.094-9.433 2.85-1.191 5.623-1.389 12.248-.876 8.199.636 9.058.496 20.198-3.3 23.606-8.044 39.012-16.756 42.452-24.005 2.621-5.523 12.013-32.938 14.842-43.321 5.072-18.619 5.07-21.459-.035-46.355-6.297-30.708-10.807-48.343-14.852-58.075-.898-2.159-3.811-6.175-6.473-8.925-6.361-6.569-19.629-24.227-25.008-33.28-7.25-12.205-9.01-17.538-9.037-27.388-.013-4.768-.297-9.38-.631-10.25-.697-1.817-3.065-2.002-5.738-.449m-165.161 1.876c-.343.556.598 4.043 2.092 7.75 7.424 18.431 1.476 28.382-29.111 48.698-8.236 5.471-17.107 12.13-19.712 14.798-9.23 9.453-19.092 29.865-19.202 39.745l-.061 5.5 4.5-.098c2.558-.056 8.907-1.753 14.711-3.933 8.968-3.367 10.283-4.164 10.806-6.548 1.248-5.679 7.312-7.883 8.448-3.07l.552 2.34 1.844-2.038c1.014-1.12 1.65-2.621 1.412-3.335s.147-3.226.856-5.582c.71-2.356 1.052-4.903.762-5.66-.376-.98.709-1.586 3.766-2.103 5.564-.94 10.843-5.96 10.843-10.31 0-2.889.164-3.011 3.363-2.492 1.849.301 4.348.019 5.553-.626 2.704-1.447 6.075-6.811 6.08-9.672.004-1.918.432-2.079 4.343-1.638 3.834.432 4.592.169 6.5-2.258 1.465-1.862 2.161-4.153 2.161-7.112 0-3.022.42-4.365 1.365-4.365.751 0 2.551-.933 4-2.073 3.233-2.542 3.558-7.901.759-12.491-1.613-2.646-1.681-3.321-.496-4.941 1.879-2.57 1.687-6.203-.592-11.224-1.949-4.295-7.448-8.685-9.778-7.807-.683.257-1.905-.814-2.714-2.379-3.044-5.887-11.089-10.248-13.05-7.076m14.535 14.456c-1.839 2.216.507 13.216 3.117 14.613 2.499 1.338 5.652-.425 6.451-3.607.833-3.321-.303-7.471-2.047-7.471-.776 0-1.555-1.013-1.73-2.25-.389-2.734-3.936-3.521-5.791-1.285m141.368 13.051c-2.579 3.938-1.445 12.185 2.094 15.23 1.733 1.491 3.72 2.251 5.379 2.059 2.58-.299 2.623-.428 2.286-6.805-.463-8.753-2.287-13-5.582-13-1.597 0-3.135.926-4.177 2.516m-139.495 8.972c-2.171 4.909-1.409 8.403 1.883 8.63 6.82.472 9.486-4.962 5.142-10.483-2.953-3.755-4.754-3.28-7.025 1.853m-4.51 10.277c-1.563 1.037-5.49 10.268-4.825 11.344.937 1.516 6.098.983 8.382-.867 2.819-2.282 3.117-7.99.516-9.891-2.109-1.542-2.538-1.604-4.073-.586M358 83.809c0 1.459 2.821 4.703 3.499 4.025.843-.843-1.25-4.834-2.534-4.834-.531 0-.965.364-.965.809m-19.728 1.455c-3.05 1.399-3.674 4.057-1.803 7.676 2.586 5 12.805 9.116 14.12 5.687.535-1.394-6.695-12.573-8.89-13.745-.66-.352-2.202-.18-3.427.382M362 91.277c0 1.991 3.028 5.824 4.084 5.171.547-.338.215-1.825-.784-3.517-1.816-3.074-3.3-3.818-3.3-1.654m-108.095 4.337c-.736.888-7.043 5.369-14.015 9.958-11.169 7.353-19.724 14.928-18.378 16.274.252.251 2.621-1.568 5.267-4.042 2.645-2.475 9.514-7.538 15.265-11.253C252.71 99.661 257 96.298 257 94.826c0-1.36-1.664-.936-3.095.788M172 98.714c-5.296 4.176-5.911 7.242-1.748 8.706 2.214.778 3.29.567 5.5-1.078 3.378-2.515 5.088-6.786 3.638-9.085-1.604-2.543-2.558-2.355-7.39 1.457m195.512.267c-.355.575 2.159 3.85 5.588 7.279 3.429 3.429 6.4 5.741 6.601 5.136.519-1.556-11.398-13.695-12.189-12.415m-121.294 7.016c-10.223 6.652-16.646 11.908-15.704 12.851.272.271 1.505-.427 2.74-1.551 1.235-1.124 6.842-5.043 12.46-8.708 9.418-6.144 12.05-8.272 11.136-9.002-.192-.153-4.977 2.731-10.632 6.41m104.424-.747c-.772 1.237-1.696 3.505-2.052 5.038-1.633 7.032 7.427 15.011 11.489 10.117 1.105-1.332 1.043-2.383-.378-6.384-.936-2.634-1.701-5.726-1.701-6.87 0-1.958-2.595-4.151-4.911-4.151-.574 0-1.675 1.013-2.447 2.25m-216.994 3.876c-5.719 5.097-11.621 13.781-11.639 17.124-.015 2.955 1.394 1.934 3.468-2.511 1.087-2.332 5.25-7.552 9.25-11.602 4-4.05 7.273-7.537 7.273-7.75 0-1.573-3.494.409-8.352 4.739M250 108.138c-6.489 3.679-14 9.579-14 10.996 0 .55 1.912-.551 4.25-2.446 2.338-1.896 6.838-4.894 10-6.663 3.162-1.769 5.75-3.623 5.75-4.12 0-1.215.23-1.3-6 2.233m-94.806 4.967c-6.534 5.014-6.666 7.437-.401 7.308 6.376-.132 12.133-6.387 9.167-9.961-1.795-2.163-2.945-1.814-8.766 2.653M351 111.809c0 .995.708 2.682 1.574 3.75 1.52 1.873 1.555 1.854 1.014-.559-.308-1.375-.567-3.062-.574-3.75-.008-.687-.464-1.25-1.014-1.25s-1 .814-1 1.809m-105.868 3.81c-5.665 4.849-4.566 5.457 1.52.839 6.137-4.658 5.949-4.458 4.195-4.458-.818 0-3.39 1.628-5.715 3.619m3.853 1.896c-1.857 1.917-2.923 3.485-2.368 3.485 1.292 0 6.9-5.817 6.242-6.475-.273-.272-2.016 1.073-3.874 2.99m50.015.168c0 .511 1.162 2.478 2.582 4.373 1.42 1.894 4.373 6.978 6.563 11.297 4.456 8.789 6.024 9.688 2.849 1.633-3.053-7.747-11.994-20.645-11.994-17.303m-47.996 2.813c-1.29 1.373-2.123 2.718-1.852 2.99.272.271 1.783-.852 3.358-2.496 1.575-1.645 2.408-2.99 1.851-2.99-.557 0-2.068 1.123-3.357 2.496m2.567 2.075c-1.434 1.435-2.124 3.429-1.186 3.429.212 0 1.122-1.125 2.023-2.5 1.86-2.839 1.487-3.252-.837-.929m-109.833 5.295c-2.43 4.114-2.23 6.134.607 6.134 3.051 0 5.904-3.208 5.485-6.168-.503-3.551-3.985-3.532-6.092.034m80.947.668c-1.846 3.871-2.256 6.464-.778 4.916 1.42-1.487 4.079-8.45 3.227-8.45-.42 0-1.522 1.59-2.449 3.534m6.04-1.782c-1.809 1.999-4.011 7.295-3.32 7.986.253.254 1.623-1.834 3.045-4.639 2.753-5.434 2.812-6.151.275-3.347m24.942-1.085c-.367.366-.667 1.131-.667 1.7 0 .626.466.567 1.183-.15.651-.651.951-1.416.667-1.7-.284-.284-.817-.217-1.183.15m106.379 1.514c-1.646 1.767-2.069 3.311-1.841 6.728.344 5.171 2.593 6.924 2.413 1.88-.179-4.999 1.666-4.57 3.693.859 2.056 5.508 3.992 7.901 5.593 6.911 2.427-1.5 1.181-6.871-3.841-16.559-1.233-2.379-3.701-2.305-6.017.181m-59.416 5.316c2.088 3.146 3.979 5.175 4.201 4.509.483-1.449-4.768-9.162-6.665-9.788-.734-.243.375 2.133 2.464 5.279m-70.023-2.915c-1.093 2.849-.574 3.959.925 1.977.807-1.068 1.468-2.305 1.468-2.75 0-1.432-1.766-.861-2.393.773m3.366 4.668c-2.045 4.505-2.455 6.761-1.223 6.733 1.097-.025 5.159-10.983 4.072-10.983-.506 0-1.788 1.912-2.849 4.25m-22.379 1.428c-1.524 4.472-2.217 11.278-1.027 10.088.312-.312 1.154-2.974 1.87-5.916.717-2.943 1.635-6.137 2.04-7.1.421-1 .303-1.75-.276-1.75-.557 0-1.73 2.105-2.607 4.678m26.044-.178c-.316.825-.187 1.5.286 1.5.474 0 1.121-.675 1.438-1.5.316-.825.187-1.5-.286-1.5-.474 0-1.121.675-1.438 1.5m4.362.5c0 .55.45 1 1 1s1-.45 1-1-.45-1-1-1-1 .45-1 1m55.015-.464c.028 1.721 1.856 3.927 2.621 3.161.41-.409-.016-1.505-.946-2.435-.929-.93-1.683-1.257-1.675-.726m-82.962 4.214c-1.276 4.594-1.296 5.25-.161 5.25.49 0 1.186-1.238 1.547-2.75s.89-3.537 1.176-4.5c.286-.963.061-1.75-.501-1.75-.561 0-1.489 1.688-2.061 3.75m14.962-.5c.013 1.819.201 1.963.985.75 1.253-1.939 1.253-3 0-3-.55 0-.993 1.012-.985 2.25M221 138.859c0 .538-.273 1.689-.607 2.559-.334.87-.161 1.582.383 1.582 1.325 0 2.279-3.848 1.13-4.558-.498-.308-.906-.12-.906.417m3.667 2.808c-1.054 1.053-.776 6.333.333 6.333.55 0 1-1.575 1-3.5 0-3.597-.182-3.984-1.333-2.833m2.876 4.264c-.317.512-.118 1.213.441 1.559.559.345 1.016-.074 1.016-.931 0-1.757-.6-2.015-1.457-.628m142.915 6.115c-2.644 2.922-2.218 8.269.995 12.481 2.398 3.144 5.449 4.625 5.611 2.723.035-.412.169-2.775.298-5.25.129-2.475.585-5.253 1.013-6.173.525-1.125.1-2.352-1.298-3.75-2.615-2.615-4.273-2.623-6.619-.031M159 161.987c-.825.478-2.287 1.112-3.25 1.409-4.716 1.458.662 6.47 5.61 5.229 2.924-.734 4.335-4.083 2.6-6.173-1.347-1.623-2.737-1.753-4.96-.465m10.19 4.104c.548 1.669 7.585 4.209 9.56 3.451 2.173-.833.6-2.254-3.31-2.987-1.97-.37-4.286-.943-5.147-1.273-1.053-.404-1.414-.139-1.103.809m-28.814.995c-1.719.498-3.711 1.612-4.427 2.476-1.107 1.333-.876 1.937 1.529 4.004 1.558 1.339 3.468 2.434 4.243 2.434 2.141 0 5.279-1.923 5.279-3.235 0-.867-.307-.858-1.2.035-.66.66-1.871 1.2-2.691 1.2-2.19 0 1.895-2.927 4.141-2.968 2.014-.037 2.307-2.075.55-3.832-1.372-1.372-2.999-1.397-7.424-.114m327.103 4.801c-2.861 2.196-6.156 5.953-7.662 8.734-2.869 5.299-5.389 16.083-4.529 19.374.424 1.62-.282 2.471-3.342 4.032-4.279 2.183-6.022 4.7-6.896 9.958-.506 3.048-1.017 3.559-4.065 4.065-1.917.319-4.449 1.103-5.627 1.742-3.053 1.657-7.358 7.034-7.358 9.19 0 1.541-.599 1.747-3.827 1.314-4.712-.632-11.125 2.368-14.33 6.702-1.212 1.64-3.056 3.252-4.097 3.583-1.731.549-1.758.748-.319 2.338.865.956 1.573 2.441 1.573 3.299 0 2.461-3.444 6.075-5.967 6.261-1.953.144-2.796 1.562-5.603 9.425-1.818 5.091-4.008 10.329-4.868 11.641-.859 1.312-1.562 2.829-1.562 3.373 0 4.142 25.188 2.953 40.193-1.898 18.427-5.958 22.774-9.802 35.791-31.651 8.047-13.509 8.719-17.038 7.131-37.469-1.296-16.679-1.1-18.622 2.996-29.81 3.333-9.103.665-10.572-7.632-4.203M102.5 170c-.34.55.11 1 1 1s1.34-.45 1-1c-.34-.55-.79-1-1-1-.21 0-.66.45-1 1m-2.5 3c-1.282.828-1.246.972.25.985.963.008 1.75-.435 1.75-.985 0-1.22-.113-1.22-2 0m272.302 1.067c-5.527 2.088-4.949 18.933.65 18.933 2.308 0 2.928-1.531 2.297-5.664-.302-1.982.121-4.026 1.134-5.473 3.364-4.802.827-9.65-4.081-7.796m-250.462 1.955c-2.013 1.063-4.634 3.172-5.825 4.686l-2.165 2.752 2.31 1.87c6.198 5.02 18.531-3.043 14.173-9.265-1.777-2.538-3.752-2.548-8.493-.043M98.5 176c-.34.55.084 1 .941 1s1.559-.45 1.559-1-.423-1-.941-1-1.219.45-1.559 1m-3 4c-.34.55-.34 1.45 0 2s.104 1-.524 1c-.629 0-.953.563-.722 1.25.232.688-.293 1.798-1.166 2.468-1.43 1.097-1.411 1.222.187 1.25 1.601.029 4.301-4.291 3.886-6.218-.088-.412.289-.75.839-.75s1-.45 1-1-.648-1-1.441-1-1.719.45-2.059 1m27.602 1.651c-2.033 1.405-2.755 2.349-1.797 2.349 2.126 0 6.695-2.117 6.695-3.101 0-1.733-1.674-1.476-4.898.752m23.132 2.847c-1.796.78-5.621 3.629-8.5 6.331-2.879 2.702-6.697 5.657-8.484 6.567-1.801.917-3.25 2.437-3.25 3.408 0 2.843 6.595 15.768 11.733 22.995 6.025 8.473 16.903 19.535 25.127 25.549 5.168 3.78 7.144 4.652 10.541 4.652 6.659 0 28.599-7.598 28.599-9.905 0-.469-4.553-5.52-10.119-11.224-9.348-9.582-18.468-21.048-33.182-41.721-6.104-8.576-6.972-9.04-12.465-6.652m2.766 4.484c0 2.214 7.94 11.018 9.936 11.018 1.709 0 .917-1.808-3.461-7.901-3.788-5.273-6.475-6.567-6.475-3.117m-57.443 1.955c-.964 1.065-1.481 2.377-1.149 2.915.333.537.039 1.179-.652 1.426-.691.246-.929.799-.53 1.228 1.029 1.105 3.964-1.569 3.383-3.083-.266-.692.164-1.506.954-1.809 1.539-.59 1.997-2.614.592-2.614-.465 0-1.634.872-2.598 1.937m18.533-1.014c-2.169 1.373-2.712 11.316-.709 12.978 3.813 3.165 9.23-2.201 6.73-6.667-.827-1.477-1.103-1.346-2.189 1.038-.684 1.5-1.621 2.728-2.083 2.728-1.566 0-.849-3.718 1.226-6.355 2.881-3.663.882-6.163-2.975-3.722m188.399 9.144c-.627 3.71-.177 5.954.965 4.812 1.079-1.079 1.748-8.879.762-8.879-.572 0-1.349 1.83-1.727 4.067m-209.918.504c-.916.917-1.409 1.924-1.095 2.239.314.314 1.322-.179 2.238-1.096.917-.916 1.41-1.924 1.096-2.238-.315-.314-1.322.179-2.239 1.095m284.084 5.679c.7 7.006.928 7.567 2.448 6.047 1.56-1.56.073-12.297-1.703-12.297-1.08 0-1.237 1.322-.745 6.25m-78.199-4.179c-.375.607-.241 1.544.298 2.083.64.64 1.185.448 1.57-.555.699-1.823-.885-3.119-1.868-1.528m106.852.429c-1.521 2.754-2.024 7.397-.808 7.459 1.176.059 2.763-5.423 2.261-7.808-.299-1.414-.507-1.364-1.453.349M87 204c0 .55.45 1 1 1s1-.45 1-1-.45-1-1-1-1 .45-1 1m140 .5c0 .825.45 1.5 1 1.5s1-.675 1-1.5-.45-1.5-1-1.5-1 .675-1 1.5m224.139 3.036c-4.222 3.553-5.83 8.761-3.706 12.002 2.626 4.008 7.567 2.671 7.567-2.047 0-1.16.661-2.982 1.468-4.05 2.064-2.729 1.879-6.185-.396-7.402-1.533-.821-2.541-.515-4.933 1.497m-345.826-.75c-3.568 2.268-4.611 14.449-1.385 16.175 2.607 1.396 4.852.366 6.609-3.033 3.577-6.917-.174-16.354-5.224-13.142m362.327 10.3c-.364 5.547-1.135 10.97-1.714 12.052-.579 1.082-.896 2.731-.705 3.664.275 1.339.761 1.077 2.304-1.244 1.563-2.35 2.031-5.115 2.326-13.75.474-13.837-1.314-14.421-2.211-.722m-159.288-4.093c-2.173.877-3.888 2.805-3.151 3.542.611.611 7.799-2.839 7.799-3.743 0-.999-1.874-.918-4.648.201M214 214.892c0 1.081 4.991 2.451 5.839 1.602.811-.811-1.909-2.46-4.089-2.479-.963-.008-1.75.386-1.75.877m182.149 4.44c-2.582 6.902-3.666 12.668-2.382 12.668 1.137 0 2.44-3.114 4.667-11.154 1.834-6.621 1.855-6.846.638-6.846-.511 0-1.826 2.4-2.923 5.332m-86.899-3.301c-1.885.758-3.237 2.969-1.815 2.969 1.578 0 5.565-2.131 5.565-2.975 0-1.212-.722-1.211-3.75.006M212.5 218c-.365.591.736.994 2.691.985 2.504-.012 2.944-.251 1.809-.985-1.944-1.256-3.724-1.256-4.5 0m18.532-.45c-.018.577.531 1.656 1.218 2.397 1.028 1.109.896 1.208-.75.559-7.076-2.79-10.5-1.329-10.5 4.482 0 4.815 3.063 8.746 7.456 9.57 6.863 1.287 10.272-2.339 8.439-8.975-.964-3.494-5.801-10.119-5.863-8.033m60.877 3.578c-1.272 1.786-2.427 5.203-2.692 7.965-.425 4.423-.247 4.936 2.083 5.998 6.624 3.018 14.046-2.17 13.498-9.435-.377-5.006-2.533-6.572-6.818-4.955-2.827 1.067-3.022 1.006-2.458-.771.944-2.975-1.132-2.287-3.613 1.198m-79.378.165c-.428.986-.497 2.074-.155 2.417 1.016 1.015 1.835-.411 1.367-2.382-.414-1.747-.468-1.748-1.212-.035M309.5 221c-.34.55.335 1 1.5 1s1.84-.45 1.5-1c-.34-.55-1.015-1-1.5-1-.485 0-1.16.45-1.5 1m128 .563c-3.876 2.004-6.076 4.195-5.145 5.125.405.405 1.609.191 2.677-.476 3.552-2.218 3.403-1.252-.337 2.173-4.111 3.766-4.41 4.757-2.126 7.042 1.989 1.988 4.374.836 9.662-4.667 3.826-3.983 4.741-7.388 2.569-9.56-1.607-1.607-3.69-1.503-7.3.363m-212.75 2.014c-1.256 1.267-.838 5.105.695 6.377 1.944 1.614 5.96.937 6.342-1.07.21-1.1-.638-1.804-2.658-2.208-1.632-.327-3.116-1.327-3.298-2.224-.182-.897-.669-1.291-1.081-.875m75.25 1.948c0 .9-1.25 1.775-3.047 2.134-4.083.817-3.664 3.841.531 3.841 3.134 0 5.852-3.462 4.823-6.143-.706-1.839-2.307-1.722-2.307.168m11-.525c0 .55.45 1 1 1s1-.45 1-1-.45-1-1-1-1 .45-1 1m-99.403.844c-.346.56-.142 1.319.453 1.687 1.538.95 2.53-.351 1.246-1.635-.718-.718-1.277-.735-1.699-.052m-106.113 3.54c-1.935 2.953-1.383 5.394 2.174 9.621 4.386 5.213 8.421 3.349 8.522-3.937.053-3.877-1.426-7.068-3.277-7.068-.469 0-.571 1.41-.226 3.134.485 2.424.309 3.029-.775 2.672-.771-.255-1.542-1.407-1.712-2.562-.171-1.154-.928-2.612-1.683-3.238-1.076-.893-1.73-.595-3.023 1.378M213 230c0 .55.45 1 1 1s1-.45 1-1-.45-1-1-1-1 .45-1 1m204.212 4.124c-6.557 3.246-9.311 10.543-4.998 13.246 1.337.838 2.326.584 4.5-1.157 1.532-1.227 4.495-3.372 6.584-4.765 4.93-3.289 5.647-5.265 2.758-7.604-2.882-2.333-3.611-2.31-8.844.28M153 235c0 .55 1.463.968 3.25.93 2.724-.059 2.926-.21 1.25-.93-2.763-1.187-4.5-1.187-4.5 0m130.207 1.193c-2.648 2.648-.527 14.586 3.353 18.873 2.407 2.66 3.909 2.442 1.997-.289-1.784-2.546-2.084-5.221-.474-4.226.595.368.37-.708-.5-2.391-2.46-4.757-1.895-5.191 1.988-1.528 1.964 1.852 4.327 3.367 5.25 3.365 1.114-.001.246-1.263-2.581-3.75-2.343-2.061-5.063-5.438-6.043-7.504-1.392-2.935-2.047-3.493-2.99-2.55m107.902.993c-.93 2.463-.501 4.174.839 3.346 1.276-.788 1.962-4.47.95-5.095-.503-.311-1.308.476-1.789 1.749m-155.857 3.805c-1.765 2.103-5.008 4.653-7.205 5.667-3.848 1.774-5.233 3.342-2.952 3.342.603 0 3.528-1.335 6.5-2.966 2.973-1.632 5.405-2.61 5.405-2.175 0 1.169-4.447 5.141-5.755 5.141-.62 0-1.449.521-1.842 1.158-.712 1.152.375 1.018 5.097-.628l2-.697-2 1.833c-1.338 1.227-2.016 3.157-2.048 5.834-.034 2.85-1.109 5.653-3.738 9.75-3.933 6.13-3.468 7.932.646 2.5 5.269-6.958 10.56-21.132 10.616-28.441.035-4.583-1.08-4.658-4.724-.318M156.5 239c.781 1.264 3.544 1.264 5.5 0 1.113-.72.519-.973-2.309-.985-2.288-.009-3.562.384-3.191.985m3.5 3c0 1.278 6.023 1.278 8 0 1.085-.701.185-.974-3.25-.985-2.613-.008-4.75.435-4.75.985m8 2.959c-3.36.493-4.054.863-2.738 1.462 2.102.957 10.445-.138 11.274-1.479.629-1.018-1.495-1.014-8.536.017m126 .072c0 1.289 2.849 2.453 3.764 1.538.373-.373.016-1.096-.793-1.608-1.936-1.224-2.971-1.2-2.971.07m-175.25 3.049c-2.754 1.604-2.101 3.631 2.887 8.963 5.222 5.583 7.547 6.131 10.017 2.363 1.609-2.456 1.6-2.779-.172-6.069-1.944-3.611-5.482-6.373-5.482-4.28 0 .62.894 2.264 1.986 3.653 2.1 2.669 1.881 4.56-.426 3.674-1.242-.476-2.286-2.502-3.935-7.634-.63-1.961-2.271-2.187-4.875-.67m59.083-.579c-.276.275-2.376.574-4.667.664-5.481.214-5.406 1.839.084 1.821 5.099-.016 8.75-.893 8.75-2.103 0-.932-3.313-1.236-4.167-.382m-38.812 13.615c-9.509 3.794-7.169 10.884 3.591 10.884 3.569 0 5.885-.582 7.491-1.883 2.067-1.673 2.19-2.178 1.109-4.551-.669-1.469-2.776-3.321-4.682-4.118-3.969-1.658-4.164-1.667-7.509-.332m292.219 1.973c-1.243.469-5.199 1.448-8.792 2.174-6.66 1.346-8.968 3.489-3.154 2.928 4.389-.423 14.649-3.29 15.249-4.261.812-1.313-.9-1.749-3.303-.841m8.01 1.17c-4.717 2.37-5.688 4.319-1.646 3.304 3.172-.796 7.396-3.468 7.396-4.678 0-1.264-.951-1.037-5.75 1.374M139.5 265c.34.55 2.166 1 4.059 1 1.893 0 3.441-.45 3.441-1s-1.827-1-4.059-1c-2.451 0-3.814.396-3.441 1m19.53.279c-1.358.688-3.154 2.469-3.99 3.959-1.368 2.438-1.362 2.868.061 4.291 1.242 1.242 2.703 1.433 6.806.889 5.649-.749 8.093-2.423 8.093-5.54 0-1.314-1.167-2.467-3.468-3.429-4.178-1.746-4.378-1.75-7.502-.17m-67.3 4.653C84.776 276.038 81.1 287.565 77.039 316c-2.538 17.774-4.074 23.289-9.277 33.318-5.21 10.043-10.948 15.73-20.394 20.212-4.309 2.046-7.337 4.074-7.112 4.766 1.173 3.606 15.437 6.417 24.273 4.783C73.535 377.414 79 373.255 79 368.066c0-1.136.533-2.066 1.184-2.066.652 0 3.085-.92 5.407-2.044 4.661-2.257 7.688-7.12 7.199-11.569-.247-2.25.438-3.039 4.617-5.312 3.021-1.644 5.615-3.991 6.75-6.107 2.234-4.166 2.281-5.604.307-9.39-1.635-3.135-.806-4.531 2.709-4.563 4.558-.041 10.548-9.225 9.667-14.82-.146-.932 1.137-3.08 2.853-4.774 2.999-2.961 5.793-9.826 4.71-11.577-1.051-1.701-2.261-.767-2.925 2.258-.375 1.706-1.546 3.966-2.603 5.023-1.601 1.601-2.292 1.726-4.148.748-4.358-2.295-4.366-4.312-.045-11.16l2.39-3.788-10.286-10.962c-5.657-6.029-10.608-10.962-11.001-10.963-.394 0-2.218 1.319-4.055 2.932m333.77.199c-1.65.528-8.288 1.23-14.75 1.561-12.086.619-15.11 1.669-7.334 2.546 9.214 1.038 28.584-1.886 28.584-4.316 0-1.138-2.541-1.057-6.5.209m-331.928 3.44c-4.661 4.661-11.057 21.334-10.396 27.102.518 4.516 2.223 2.869 3.517-3.396 1.771-8.578 4.983-17.163 7.806-20.865 1.376-1.803 2.501-3.534 2.501-3.845 0-1.098-1.875-.549-3.428 1.004m258.6-.172c-6.047 1.062-7.495 2.601-2.448 2.601 3.616 0 11.276-2.119 11.276-3.119 0-1.005-.239-.991-8.828.518m.328 3.777c-2.2.537-6.39.746-9.311.466-3.829-.368-5.203-.18-4.921.674.437 1.326 10.472 2.134 15.308 1.232 1.692-.315 3.942-1.228 5-2.029 1.89-1.43 1.889-1.454-.076-1.387-1.1.038-3.8.508-6 1.044m-24.5 3.638c0 1.912 12.554 4.78 16.058 3.668 3.304-1.049 1.32-2.158-5.052-2.824-3.331-.348-7.17-.912-8.531-1.254-1.435-.36-2.475-.187-2.475.41m51.6 1.024c-.323.522.026 2.685.774 4.806 2.812 7.968 5.595 34.356 3.625 34.356-1.633 0-2.638-3.608-4.453-15.989-1.941-13.233-4.945-21.486-7.441-20.443-.883.369-7.604 2.843-14.937 5.497-7.333 2.654-14.023 5.4-14.867 6.1-3.663 3.04 1.044 19.25 6.564 22.607 2.224 1.352 2.764 2.201 2.084 3.277-2.7 4.267.324 13.993 4.946 15.907 2.497 1.035 2.768 1.648 2.897 6.569.239 9.068 5.426 16.475 11.539 16.475 2.014 0 2.74.929 4.504 5.766 2.913 7.991 8.654 13.53 14.308 13.804 3.38.164 4.443.701 5.545 2.804 1.522 2.905 6.795 6.063 8.434 5.051.584-.361 2.411.98 4.06 2.98 3.947 4.788 8.243 6.95 12.454 6.267 1.83-.297 3.553-.175 3.829.271.275.446 2.533 1.323 5.017 1.948 3.762.948 5.141.863 8.267-.51 2.063-.905 6.137-2.001 9.053-2.434 5.851-.87 8.198-2.287 8.198-4.948 0-2.039-2.327-3.063-13.798-6.069-6.814-1.786-10.412-3.574-20.131-10.004-22.112-14.631-25.07-20.86-29.987-63.16-2.211-19.017-5.349-31.038-8.241-31.571-.911-.168-1.92.121-2.243.643M125 284.305c0 2.032 9.014 6.258 17.688 8.293 9.089 2.132 24.546 1.302 22.059-1.184-.322-.323-6.36-.929-13.417-1.347-12.383-.734-21.001-2.89-25.078-6.272-.911-.757-1.252-.618-1.252.51M314.5 286c-.34.55-.479 1.003-.309 1.007.17.004 4.696.223 10.059.487 8.892.437 12.22-.332 8.168-1.887-2.616-1.004-17.253-.683-17.918.393m32.67 11.295c-.883 1.064-.774 2.51.461 6.134 1.368 4.017 1.413 5.121.288 7.222-1.122 2.098-1.103 2.621.127 3.399 4.44 2.808 9.206-.919 6.777-5.3-.686-1.238-1.489-4.5-1.785-7.25-.441-4.097-.915-5.054-2.626-5.298-1.148-.164-2.607.328-3.242 1.093m-75.996 7.019c-1.595 1.699-2.174 3.566-2.174 7.014 0 2.585-.514 5.521-1.141 6.526-2.58 4.132 2.461 14.785 5.718 12.082.899-.746 1.175-2.076.767-3.7-.447-1.781-.292-2.322.519-1.821 1.879 1.161 4.749-.269 5.985-2.981 2.342-5.141.744-14.342-3.071-17.684-2.653-2.323-3.998-2.208-6.603.564m-166.052 4.936c-3.586 8.436-3.751 12.911-.521 14.151 1.976.758 7.047-1.875 8.369-4.346 1.89-3.531 1.224-8.951-1.425-11.6-3.379-3.38-4.337-3.112-6.423 1.795m167.772.441c-.284 2.165.395 6.973 1.172 8.309.589 1.011.883-.029.904-3.191.016-2.58-.42-4.969-.97-5.309-.55-.34-1.048-.254-1.106.191M230 317.725c-3.356 1.268-10.207 6.873-12.054 9.862-5.265 8.519 4.12 9.28 12.395 1.006 4.112-4.113 5.479-7.9 3.648-10.106-1.315-1.585-1.645-1.648-3.989-.762m126.345 2.819c-.326.849-.335 3.128-.021 5.066.404 2.49.221 3.405-.626 3.123-.659-.219-1.433-1.711-1.719-3.315-.309-1.727-.817-2.45-1.246-1.771-1.133 1.796.295 7.068 2.44 9.01 2.911 2.634 5.152.654 6.215-5.49.651-3.767.552-5.534-.373-6.649-1.624-1.957-3.914-1.944-4.67.026m-167.602 1.297c-1.516.913-2.558 2.18-2.316 2.817s-.655 1.433-1.994 1.769c-1.338.336-2.433 1.053-2.433 1.592 0 1.216.25 1.217 3.435.006 1.411-.537 2.565-1.631 2.565-2.433 0-.801.859-1.73 1.91-2.063 1.05-.334 2.455-1.264 3.122-2.068 1.679-2.023-.635-1.818-4.289.38m80.257-.282c0 .857.457 1.276 1.016.931.559-.346.758-1.047.441-1.559-.857-1.387-1.457-1.129-1.457.628M284 324c-1.1 1.1-2 2.468-2 3.04 0 .571 2.813 4.144 6.25 7.938 3.438 3.794 7.15 8.081 8.25 9.527 2.389 3.139 4.872 2.609 6.993-1.492 1.957-3.785.386-9.034-4.234-14.149-6.167-6.825-11.574-8.549-15.259-4.864m-58.583 2.458c-2.478 2.188-3.343 3.474-2.354 3.5 1.685.045 7.625-5.603 6.781-6.448-.281-.28-2.273 1.046-4.427 2.948m7.461 2.424c-4.609 4.482-5.968 6.445-5.713 8.25.248 1.75 1.068 2.452 3.144 2.69 5.21.597 14.167-10.533 12.33-15.32-1.049-2.734-3.642-1.57-9.761 4.38m2.126 2.614c-1.29 1.373-2.123 2.718-1.852 2.99.272.271 1.783-.852 3.358-2.496 1.575-1.645 2.408-2.99 1.851-2.99-.557 0-2.068 1.123-3.357 2.496m-141.941 3.578c-2.669 6.205-2.425 9.304.769 9.756 3.053.433 5.915-2.255 7.291-6.845 1.383-4.617-.108-7.985-3.535-7.985-1.861 0-2.79 1.041-4.525 5.074M175 331c-1.1.711-.383.973 2.691.985 2.305.008 4.469-.435 4.809-.985.801-1.295-5.495-1.295-7.5 0m118.134 3.915c1.851 2.154 3.703 3.954 4.116 4 1.707.193.562-2.721-2.055-5.228-4.31-4.13-5.869-3.201-2.061 1.228m-121.874-.43c-.782.888-.874 1.635-.25 2.021.544.337.99.135.99-.447 0-.582.9-1.059 2-1.059s2-.45 2-1c0-1.48-3.309-1.141-4.74.485M277 335.684c0 6.588 9.331 18.316 14.573 18.316 3.27 0 3.543-2.156.975-7.698C287.696 335.829 277 328.525 277 335.684m-69.5 3.147c-5.914 2.816-13.5 9.868-13.5 12.549 0 2.398 2.727 3.839 5.932 3.135 6.606-1.451 17.685-12.07 16.892-16.19-.528-2.744-2.75-2.624-9.324.506m154.949.637c-1.936 4.633-1.829 6.868.554 11.538 2.326 4.559 5.191 6.413 8.59 5.56 2.822-.708 3.225-4.511.907-8.566-.786-1.375-1.445-3.767-1.465-5.316-.053-4.211-1.762-6.684-4.621-6.684-1.926 0-2.856.814-3.965 3.468m-209.606 4.547c-9.389 4.801-14.321 11.122-15.028 19.261-.447 5.15 1.464 4.577 2.85-.854 1.949-7.641 5.401-11.728 13.795-16.336 4.183-2.295 7.338-4.603 7.013-5.129-.325-.527-.677-.935-.782-.907-.105.027-3.637 1.812-7.848 3.965M284 340.911c0 1.838 1.939 5.089 3.035 5.089 1.657 0 1.057-2.607-1.035-4.5-1.253-1.134-2-1.354-2-.589m-78.75 3.673c-3.047 2.401-4.202 4.435-2.5 4.401.412-.008 2.55-1.566 4.75-3.462 4.644-4.003 2.678-4.824-2.25-.939m8.5 4.959c-4.262 3.604-7.75 7.175-7.75 7.934 0 1.926 2.8 4.523 4.876 4.523.953 0 3.875-1.359 6.493-3.019 7.476-4.741 10.984-14.735 5.524-15.736-.766-.141-4.881 2.693-9.143 6.298m88.894-.044c-2.417 2.417-2.034 4.708 1.694 10.139 1.836 2.674 3.784 6.212 4.329 7.862.649 1.967 1.772 3.115 3.263 3.333 7.608 1.114 9.812-3.752 5.599-12.362-3.928-8.03-11.352-12.505-14.885-8.972m-221.531 4.486c-4.621 4.431-5.073 5.222-4.059 7.115.94 1.758 1.756 2.03 4.667 1.558 4.337-.704 6.969-2.969 7.789-6.703.614-2.798-.814-6.955-2.389-6.955-.445 0-3.148 2.243-6.008 4.985m134.387-1.508c-2.94 2.535-3.524 3.458-2.205 3.485 1.922.041 6.705-4.181 6.705-5.917 0-1.443-.009-1.438-4.5 2.432m-35.164 3.947c-6.813 3.172-9.893 6.201-8.28 8.143 1.8 2.169 4.472 1.753 11.655-1.817 7.189-3.573 8.567-5.342 5.76-7.395-2.473-1.808-3.118-1.732-9.135 1.069m196.672 1.067c-.845 1.018-1.012 2.994-.528 6.227 1.244 8.294 11.231 16.171 15.32 12.082 2.455-2.455 1.37-6.869-2.622-10.666-2.102-1.998-4.587-4.872-5.523-6.384-1.873-3.027-4.731-3.569-6.647-1.259m-67.788 3.498c1.448 2.532 2.401 3.427 2.613 2.451.388-1.795-2.415-6.44-3.886-6.44-.554 0 .019 1.795 1.273 3.989m-127.779-1.434c-1.864 1.494-1.852 1.512.309.465 1.238-.6 2.25-1.3 2.25-1.555 0-.765-.519-.544-2.559 1.09m11.295.863c-8.317 3.42-10.736 5.238-10.736 8.07 0 4.299 6.366 5.926 11.931 3.048 3.531-1.826 8.069-7.12 8.069-9.413 0-1.651-1.798-4.149-2.95-4.099-.302.013-3.144 1.09-6.314 2.394m101.871.164c-1.518 3.956-.565 7.66 2.851 11.076 2.938 2.938 3.765 3.293 5.5 2.365 3.282-1.757 2.447-9.475-1.446-13.368-2.1-2.1-6.111-2.143-6.905-.073m43.132 3.013c-.297.297.382 3.097 1.51 6.222 1.577 4.371 2.161 8.981 2.528 19.974.332 9.95.818 14.175 1.6 13.908.765-.26 1.093-4.82 1.028-14.291-.082-11.831-.427-14.764-2.315-19.639-2.192-5.66-3.297-7.228-4.351-6.174m-146.387 1.398c-2.261.913-3.88 2.813-3.078 3.614.48.48 7.726-3.465 7.726-4.206 0-.642-2.32-.347-4.648.592m-30.145 1.675c-3.455 1.703-4.823 3.551-6.912 9.332-1.64 4.538-1.616 6.489.097 7.91 1.109.921 2.829-.095 8.471-4.998 8.212-7.139 9.399-9.472 6.153-12.1-2.721-2.204-3.596-2.22-7.809-.144M68 369.97c-4.144 3.601-4.373 4.039-2.892 5.542 1.451 1.473 1.958 1.487 5.173.144 3.979-1.662 7.244-5.845 6.36-8.148-.959-2.5-3.892-1.664-8.641 2.462m102.371 4.262c-2.212 2.347-5.259 5.277-6.772 6.509-4.74 3.864-1.867 8.095 4.666 6.869 7.247-1.359 12.545-9.308 9.639-14.461-2.105-3.732-3.135-3.584-7.533 1.083m-33.872.018c-1.518 6.329-3.203 22.359-2.436 23.167.52.547 1.063.345 1.347-.5.766-2.286 3.59-20.056 3.59-22.593 0-2.974-1.793-3.027-2.501-.074m23.807.165c-1.543 1.328-2.491 2.731-2.106 3.117.729.73 6.648-3.466 6.745-4.782.106-1.437-1.852-.734-4.639 1.665m236.382-1.769c-1.633 1.632-.624 8.317 1.654 10.966 4.927 5.728 7.92-.978 3.408-7.637-2.351-3.47-3.902-4.49-5.062-3.329m-81.48 3.546c-1.376 1.376-.553 20.521.965 22.455 2.553 3.251 8.361-2.357 9.363-9.041 1.314-8.761-5.775-17.967-10.328-13.414M170.5 381c-1.991 2.078-2.409 3-1.361 3 1.485 0 5.861-3.968 5.861-5.314 0-1.459-1.745-.562-4.5 2.314m133.966.037c-1.204 1.331-1.992 4.082-2.27 7.931-.383 5.291-.164 6.155 2.143 8.462 2.988 2.988 3.943 3.145 6.09.999 1.523-1.524 1.987-5.186 1.574-12.428-.39-6.855-3.796-9.097-7.537-4.964m103.27-.439c-.794.793.199 3.473 2.11 5.695 1.409 1.638 1.387 1.734-.253 1.104-3.163-1.213-1.415 2.806 2.312 5.318 3.877 2.613 5.947 2.845 8.527.959 1.61-1.178 1.66-1.618.441-3.926-1.361-2.577-9.929-9.748-11.646-9.748-.492 0-1.163.269-1.491.598M306.81 389.5c-.225 1.925-.049 3.5.391 3.5.439 0 .799-1.575.799-3.5s-.176-3.5-.391-3.5c-.214 0-.574 1.575-.799 3.5m-73.669.114c-4.915 3.442-7.981 14.614-4.747 17.298 1.97 1.635 4.291-.941 7.78-8.635 3.336-7.357 3.394-7.903.981-9.194-1.33-.712-2.452-.563-4.014.531m-79.584 2.609c-.856 1.222-1.557 4.005-1.557 6.184 0 4.818 3.433 12.278 6.029 13.102 2.503.795 5.971-1.131 5.971-3.316 0-3.791-3.951-15.684-5.614-16.9-2.412-1.763-3.026-1.645-4.829.93m269.443.204c0 2.292 4.992 5.573 8.48 5.573 1.883 0 3.92-.785 4.928-1.899 1.635-1.806 1.607-1.977-.567-3.5-3.005-2.104-12.841-2.237-12.841-.174m-259.487.552c-.333.539-.195 1.776.307 2.75.501.974 1.226 4.235 1.61 7.246.384 3.011 1.175 6.049 1.757 6.75 1.703 2.053 4.637 1.473 6.435-1.27 1.435-2.191 1.496-3.119.432-6.667-1.94-6.477-8.562-12.01-10.541-8.809m68.148 1.844c-.914 1.009-1.643 2.924-1.621 4.256.034 2.075.319 1.861 1.996-1.5 2.212-4.434 2.073-5.461-.375-2.756m-75.19 1.537c-1.095 2.648.701 9.14 2.529 9.14 1.791 0 1.652-2.977-.361-7.711-1.212-2.849-1.502-3.04-2.168-1.429m11.544 2.831c.009.72.452 1.984.985 2.809.788 1.219.972 1.09.985-.691.008-1.205-.435-2.469-.985-2.809-.55-.34-.993-.029-.985.691m145.571 5.714c-1.785 1.973-4.158 15.162-3.184 17.7 1.509 3.933 8.461-.307 11.03-6.728 1.976-4.937 1.32-9.237-1.734-11.376-2.818-1.974-4.033-1.894-6.112.404m-13.663 3.018c-3.276 3.276-3.63 5.808-1.413 10.097 1.93 3.732 4.464 5.134 6.86 3.793 3.425-1.917 5.752-10.726 4.023-15.231-1.025-2.672-6.188-1.941-9.47 1.341m-87.033 1.951c-3.293 3.294-3.967 4.606-3.707 7.225.695 7.013 6.903 5.957 11.987-2.039 2.499-3.932 2.667-4.675 1.461-6.5-2.321-3.514-5.316-3.11-9.741 1.314m28.093-.624c-.009.688-1.562 5.06-3.45 9.717-1.888 4.656-3.19 8.706-2.893 9 .953.941 5.29-5.324 6.849-9.895 1.728-5.066 1.982-10.072.511-10.072-.55 0-1.008.563-1.017 1.25M341 412.941c0 2.168.45 4.219 1 4.559.611.378 1-1.156 1-3.941 0-2.507-.45-4.559-1-4.559s-1 1.773-1 3.941m-125.592-.442c-2.237 3.415-1.314 4.095 1.497 1.103 1.364-1.453 1.841-2.641 1.214-3.028-.567-.351-1.787.516-2.711 1.925m-43.966 1.594c-.371.602 1.29 3.177 3.691 5.723 5.789 6.138 6.133 6.345 7.788 4.691 1.229-1.228 1.17-1.978-.429-5.525-1.018-2.257-2.64-4.526-3.606-5.043-2.38-1.274-6.615-1.186-7.444.154m-6.924 2.878c-1.864 3.015 6.641 11.377 10.982 10.796 3.094-.413 2.401-2.487-2.449-7.327-4.294-4.285-7.279-5.498-8.533-3.469m30.667.018c-7.577 1.794-11.239 10.106-4.777 10.843 4.708.537 9.322-.734 12.563-3.461 3.57-3.004 3.685-3.715 1.029-6.371-2.117-2.117-3.481-2.273-8.815-1.011m.065 4.231c-2.36 1.139-3.156 2.996-1 2.332.688-.212 2.506-.661 4.041-.998 1.535-.337 2.521-1.049 2.191-1.583-.753-1.218-2.347-1.142-5.232.249m104.959 8.346c-2.741 1.92-6.209 8.495-6.209 11.772 0 3.23 2.609 5.394 4.834 4.009 3.137-1.951 8.166-9.48 8.166-12.225 0-2.8-1.576-5.122-3.477-5.122-.593 0-2.084.705-3.314 1.566m11.611-.345c-2.614 2.036-8.289 16.71-6.972 18.027 1.733 1.733 5.666-.595 9.166-5.425 2.543-3.512 3.027-5.037 2.782-8.778-.318-4.864-1.991-6.15-4.976-3.824m21.084 14.394c-1.16 1.398-1.086 1.566.545 1.25 1.037-.201 2.073-.927 2.301-1.615.594-1.784-1.26-1.546-2.846.365m-48.154 3.465c-4.455 2.595-6.434 12.251-2.75 13.42 3.089.981 5.254-.181 8.25-4.424 3.229-4.574 3.404-6.174.921-8.421-2.08-1.883-3.896-2.045-6.421-.575m45.459.159c-1.26.607-2.079 1.657-1.819 2.334.259.676-.51 1.547-1.709 1.934-1.817.588-1.898.781-.483 1.162 2.043.551 6.072-1.424 5.336-2.614-.287-.465.15-1.103.972-1.419 1.513-.58 2.125-2.693.744-2.568-.413.037-1.781.564-3.041 1.171m-37.743 8.249c-4.959 5.805-5.323 8.512-1.145 8.512 5.814 0 12.869-7.908 10.689-11.981-1.791-3.346-4.591-2.329-9.544 3.469m31.784.627c-3.459 2.215-4.421 4.253-1.5 3.178 2.831-1.041 6.25-3.453 6.25-4.408 0-1.356-1.196-1.046-4.75 1.23m-55.75 4.83c-3.013 1.234-5.819 4.782-5.153 6.518 1.016 2.645 8.999 2.021 12.347-.966l2.806-2.503-2.361-1.997c-2.505-2.119-4.395-2.379-7.639-1.052m10.006 7.349c-6.317 3.489-6.885 5.706-1.463 5.706 3.4 0 9.681-5.019 8.558-6.837-1.012-1.638-2.515-1.398-7.095 1.131m-27.256-.263c-3.121 1.254-2.812 4.206.654 6.253 3.813 2.253 8.758 2.236 9.926-.034 1.256-2.443.457-4.05-2.871-5.771-3.225-1.668-4.49-1.742-7.709-.448m49.389 4.728c-3.299.964-4.533 1.747-3.842 2.438 1.135 1.135 7.727-.617 8.789-2.336.984-1.592.209-1.608-4.947-.102m-9.282 5.729c.314.818.25 1.44-.143 1.382-2.152-.321-4.214.263-4.214 1.193 0 .598 1.424.926 3.25.75 1.946-.187 3.15-.815 3-1.563-.145-.727.772-1.25 2.191-1.25 1.343 0 2.719-.45 3.059-1 .374-.606-1.025-1-3.548-1-3.277 0-4.044.317-3.595 1.488M282 484c0 .55 1.548 1 3.441 1 1.893 0 3.719-.45 4.059-1 .373-.604-.99-1-3.441-1-2.232 0-4.059.45-4.059 1" fill="undefined" fill-rule="evenodd"/></svg>